<svg xmlns="http://www.w3.org/2000/svg" xml:space="preserve" style="fill-rule:evenodd;clip-rule:evenodd;stroke-linejoin:round;stroke-miterlimit:2" viewBox="0 0 81 81">
  <style>
    #iconBg { fill: #22212c }
    #iconText { fill: #fff }

    @media (prefers-color-scheme: dark) {
      #iconBg { fill: #FFFF80 }
      #iconText { fill: #22212c }
    }
  </style>
  <path id="iconBg" d="M771.745 141.663c0-10.121-8.217-18.338-18.338-18.338h-36.676c-10.121 0-18.338 8.217-18.338 18.338v36.676c0 10.121 8.217 18.338 18.338 18.338h36.676c10.121 0 18.338-8.217 18.338-18.338v-36.676Z" transform="translate(-761.309 -134.177) scale(1.09063)"/>
  <path id="iconText" d="M172.047 395.983h6.804c3.816 0 5.652-2.232 5.652-5.364v-20.412h-12.528v4.14h7.2v17.496h-7.128v4.14Zm9.792-28.152c2.34 0 3.204-1.116 3.204-2.52v-1.044c0-1.44-.864-2.52-3.204-2.52-2.376 0-3.204 1.08-3.204 2.52v1.044c0 1.404.828 2.52 3.204 2.52ZM192.459 388.783h5.328v-3.384h.252c.936 2.232 2.52 3.816 5.508 3.816 4.104 0 6.984-2.988 6.984-9.72 0-6.732-2.88-9.72-6.984-9.72-2.988 0-4.572 1.584-5.508 3.816h-.252v-11.448h-5.328v26.64Zm8.784-3.708c-1.872 0-3.456-.9-3.456-2.844v-5.472c0-1.944 1.584-2.844 3.456-2.844 2.376 0 3.744 1.548 3.744 4.14v2.88c0 2.592-1.368 4.14-3.744 4.14Z" style="fill-rule:nonzero" transform="matrix(1.11122 0 0 1.11122 -172.142 -380.675)"/>
</svg>
