<svg xmlns="http://www.w3.org/2000/svg">
    <symbol id="brandIcon" viewBox="0 0 105 19.573">
        <title>j[barron]</title>
        <g><path d="M7.3 5.616H0v2.473h4.037v7.461a1.146 1.146 0 01-1.31 1.273H0v2.752h2.86c3.271 0 4.438-1.1 4.438-4.166zM5.53 3.734c1.31 0 2.133-.693 2.133-1.807S6.84.12 5.53.12 3.4.814 3.4 1.928s.818 1.807 2.129 1.807z" fill="#eee"/><path d="M13.391 0v18.562h6.839v-2.527h-3.453V2.527h3.338V0z" fill="#ffd866"/><path d="M30.27 16.194c2.43 0 3.75-1.591 3.75-4.521V9.96c0-2.93-1.32-4.521-3.75-4.521a2.582 2.582 0 00-2.822 2.041h-.21V1.714h-3.554v14.322h3.53v-1.91h.21a2.547 2.547 0 002.846 2.068zm-1.416-2.687a1.605 1.605 0 01-1.7-1.816V9.838a1.605 1.605 0 011.7-1.816 1.605 1.605 0 011.7 1.816v1.853a1.605 1.605 0 01-1.705 1.816zM39.095 16.195a3.261 3.261 0 002.9-1.451h.287v1.292h3.195V8.997c0-2.331-1.607-3.623-4.525-3.623-2.784 0-4.63 1.254-4.821 3.276h3.279a1.411 1.411 0 011.425-.842c.8 0 1.31.421 1.31 1.086v.777l-2.181.159c-2.774.206-4.218 1.31-4.218 3.211a3.086 3.086 0 003.349 3.154zm1.225-2.444c-.775 0-1.272-.374-1.272-.964 0-.646.517-1.011 1.559-1.1l1.54-.122v.477a1.655 1.655 0 01-1.827 1.709zM52.916 8.294V5.617H47.54v2.245h2.124v5.925h-1.933v2.247h8.085v-2.247H52.88v-2.35c0-2 1.1-2.836 3.74-2.836a5.286 5.286 0 011.788.309V5.54a4.637 4.637 0 00-1.5-.206c-1.97 0-2.9.805-3.425 2.958zM65.026 8.294V5.617H59.65v2.245h2.124v5.925h-1.932v2.247h8.083v-2.247h-2.937v-2.35c0-2 1.1-2.836 3.74-2.836a5.289 5.289 0 011.789.309V5.54a4.638 4.638 0 00-1.5-.206c-1.97 0-2.9.805-3.424 2.958zM77.136 16.279c3.157 0 5.127-1.779 5.127-4.634v-1.633c0-2.855-1.97-4.634-5.127-4.634s-5.127 1.774-5.127 4.634v1.638c0 2.85 1.97 4.629 5.127 4.629zm0-8.406c1.119 0 1.818.861 1.818 2.219v1.47c0 1.357-.7 2.219-1.818 2.219s-1.817-.861-1.817-2.219v-1.47c0-1.358.698-2.219 1.817-2.219zM84.195 16.035h3.377v-5.953c0-1.245.65-2 1.712-2 1.1 0 1.626.637 1.626 1.966v5.991h3.386v-6.73c0-2.565-1.244-3.932-3.558-3.932a3.089 3.089 0 00-3.07 1.938h-.182V5.612h-3.291z" fill="#eee"/><path d="M98.276 0v2.527h3.338v13.508h-3.453v2.527H105V0z" fill="#ffd866"/></g>
    </symbol>
</svg>
