<svg xmlns="http://www.w3.org/2000/svg">
    <symbol id="brandIcon" viewBox="0 0 105 19.573">
        <title>j[barron]</title>
        <g><path d="M7.3 5.616H0v2.473h4.037v7.461a1.146 1.146 0 01-1.31 1.273H0v2.752h2.86c3.271 0 4.438-1.1 4.438-4.166zM5.53 3.734c1.31 0 2.133-.693 2.133-1.807S6.84.12 5.53.12 3.4.814 3.4 1.928s.818 1.807 2.129 1.807z" fill="#eee"/><path d="M13.391 0v18.562h6.839v-2.527h-3.453V2.527h3.338V0z" fill="#ffd866"/><path d="M30.27 16.194c2.43 0 3.75-1.591 3.75-4.521V9.96c0-2.93-1.32-4.521-3.75-4.521a2.582 2.582 0 00-2.822 2.041h-.21V1.714h-3.554v14.322h3.53v-1.91h.21a2.547 2.547 0 002.846 2.068zm-1.416-2.687a1.605 1.605 0 01-1.7-1.816V9.838a1.605 1.605 0 011.7-1.816 1.605 1.605 0 011.7 1.816v1.853a1.605 1.605 0 01-1.705 1.816zM39.095 16.195a3.261 3.261 0 002.9-1.451h.287v1.292h3.195V8.997c0-2.331-1.607-3.623-4.525-3.623-2.784 0-4.63 1.254-4.821 3.276h3.279a1.411 1.411 0 011.425-.842c.8 0 1.31.421 1.31 1.086v.777l-2.181.159c-2.774.206-4.218 1.31-4.218 3.211a3.086 3.086 0 003.349 3.154zm1.225-2.444c-.775 0-1.272-.374-1.272-.964 0-.646.517-1.011 1.559-1.1l1.54-.122v.477a1.655 1.655 0 01-1.827 1.709zM52.916 8.294V5.617H47.54v2.245h2.124v5.925h-1.933v2.247h8.085v-2.247H52.88v-2.35c0-2 1.1-2.836 3.74-2.836a5.286 5.286 0 011.788.309V5.54a4.637 4.637 0 00-1.5-.206c-1.97 0-2.9.805-3.425 2.958zM65.026 8.294V5.617H59.65v2.245h2.124v5.925h-1.932v2.247h8.083v-2.247h-2.937v-2.35c0-2 1.1-2.836 3.74-2.836a5.289 5.289 0 011.789.309V5.54a4.638 4.638 0 00-1.5-.206c-1.97 0-2.9.805-3.424 2.958zM77.136 16.279c3.157 0 5.127-1.779 5.127-4.634v-1.633c0-2.855-1.97-4.634-5.127-4.634s-5.127 1.774-5.127 4.634v1.638c0 2.85 1.97 4.629 5.127 4.629zm0-8.406c1.119 0 1.818.861 1.818 2.219v1.47c0 1.357-.7 2.219-1.818 2.219s-1.817-.861-1.817-2.219v-1.47c0-1.358.698-2.219 1.817-2.219zM84.195 16.035h3.377v-5.953c0-1.245.65-2 1.712-2 1.1 0 1.626.637 1.626 1.966v5.991h3.386v-6.73c0-2.565-1.244-3.932-3.558-3.932a3.089 3.089 0 00-3.07 1.938h-.182V5.612h-3.291z" fill="#eee"/><path d="M98.276 0v2.527h3.338v13.508h-3.453v2.527H105V0z" fill="#ffd866"/></g>
    </symbol>

    <symbol id="icon-twitter" viewBox="0 0 32 32">
        <path d="M32 7.075c-1.175 0.525-2.444 0.875-3.769 1.031 1.356-0.813 2.394-2.1 2.887-3.631-1.269 0.75-2.675 1.3-4.169 1.594-1.2-1.275-2.906-2.069-4.794-2.069-3.625 0-6.563 2.938-6.563 6.563 0 0.512 0.056 1.012 0.169 1.494-5.456-0.275-10.294-2.888-13.531-6.862-0.563 0.969-0.887 2.1-0.887 3.3 0 2.275 1.156 4.287 2.919 5.463-1.075-0.031-2.087-0.331-2.975-0.819 0 0.025 0 0.056 0 0.081 0 3.181 2.263 5.838 5.269 6.437-0.55 0.15-1.131 0.231-1.731 0.231-0.425 0-0.831-0.044-1.237-0.119 0.838 2.606 3.263 4.506 6.131 4.563-2.25 1.762-5.075 2.813-8.156 2.813-0.531 0-1.050-0.031-1.569-0.094 2.913 1.869 6.362 2.95 10.069 2.95 12.075 0 18.681-10.006 18.681-18.681 0-0.287-0.006-0.569-0.019-0.85 1.281-0.919 2.394-2.075 3.275-3.394z"></path>
    </symbol>

    <symbol id="icon-github" viewBox="0 0 32 32">
        <path d="M16 0.395c-8.836 0-16 7.163-16 16 0 7.069 4.585 13.067 10.942 15.182 0.8 0.148 1.094-0.347 1.094-0.77 0-0.381-0.015-1.642-0.022-2.979-4.452 0.968-5.391-1.888-5.391-1.888-0.728-1.849-1.776-2.341-1.776-2.341-1.452-0.993 0.11-0.973 0.11-0.973 1.606 0.113 2.452 1.649 2.452 1.649 1.427 2.446 3.743 1.739 4.656 1.33 0.143-1.034 0.558-1.74 1.016-2.14-3.554-0.404-7.29-1.777-7.29-7.907 0-1.747 0.625-3.174 1.649-4.295-0.166-0.403-0.714-2.030 0.155-4.234 0 0 1.344-0.43 4.401 1.64 1.276-0.355 2.645-0.532 4.005-0.539 1.359 0.006 2.729 0.184 4.008 0.539 3.054-2.070 4.395-1.64 4.395-1.64 0.871 2.204 0.323 3.831 0.157 4.234 1.026 1.12 1.647 2.548 1.647 4.295 0 6.145-3.743 7.498-7.306 7.895 0.574 0.497 1.085 1.47 1.085 2.963 0 2.141-0.019 3.864-0.019 4.391 0 0.426 0.288 0.925 1.099 0.768 6.354-2.118 10.933-8.113 10.933-15.18 0-8.837-7.164-16-16-16z"></path>
    </symbol>

    <symbol id="icon-linkedin" viewBox="0 0 32 32">
        <path d="M12 12h5.535v2.837h0.079c0.77-1.381 2.655-2.837 5.464-2.837 5.842 0 6.922 3.637 6.922 8.367v9.633h-5.769v-8.54c0-2.037-0.042-4.657-3.001-4.657-3.005 0-3.463 2.218-3.463 4.509v8.688h-5.767v-18z"></path>
        <path d="M2 12h6v18h-6v-18z"></path>
        <path d="M8 7c0 1.657-1.343 3-3 3s-3-1.343-3-3c0-1.657 1.343-3 3-3s3 1.343 3 3z"></path>
    </symbol>

    <symbol id="expand-more" viewBox="0 0 24 24">
        <path d="m16.59 8.59-4.59 4.58-4.59-4.58-1.41 1.41 6 6 6-6z"/><path d="m0 0h24v24h-24z" fill="none"/>
    </symbol>

    <symbol id="icon-design" viewBox="0 0 24 24">
        <g><rect fill="none" height="24" width="24"/></g><g><g><path d="M16.24,11.51l1.57-1.57l-3.75-3.75l-1.57,1.57L8.35,3.63c-0.78-0.78-2.05-0.78-2.83,0l-1.9,1.9 c-0.78,0.78-0.78,2.05,0,2.83l4.13,4.13L3,17.25V21h3.75l4.76-4.76l4.13,4.13c0.95,0.95,2.23,0.6,2.83,0l1.9-1.9 c0.78-0.78,0.78-2.05,0-2.83L16.24,11.51z M9.18,11.07L5.04,6.94l1.89-1.9c0,0,0,0,0,0l1.27,1.27L7.02,7.5l1.41,1.41l1.19-1.19 l1.45,1.45L9.18,11.07z M17.06,18.96l-4.13-4.13l1.9-1.9l1.45,1.45l-1.19,1.19l1.41,1.41l1.19-1.19l1.27,1.27L17.06,18.96z"/><path d="M20.71,7.04c0.39-0.39,0.39-1.02,0-1.41l-2.34-2.34c-0.47-0.47-1.12-0.29-1.41,0l-1.83,1.83l3.75,3.75L20.71,7.04z"/></g><g/></g>
    </symbol>

    <symbol id="icon-esports" viewBox="0 0 24 24">
        <g><rect fill="none" height="24" width="24"/></g><g><g><path d="M21.58,16.09l-1.09-7.66C20.21,6.46,18.52,5,16.53,5H7.47C5.48,5,3.79,6.46,3.51,8.43l-1.09,7.66 C2.2,17.63,3.39,19,4.94,19h0c0.68,0,1.32-0.27,1.8-0.75L9,16h6l2.25,2.25c0.48,0.48,1.13,0.75,1.8,0.75h0 C20.61,19,21.8,17.63,21.58,16.09z M11,11H9v2H8v-2H6v-1h2V8h1v2h2V11z M15,10c-0.55,0-1-0.45-1-1c0-0.55,0.45-1,1-1s1,0.45,1,1 C16,9.55,15.55,10,15,10z M17,13c-0.55,0-1-0.45-1-1c0-0.55,0.45-1,1-1s1,0.45,1,1C18,12.55,17.55,13,17,13z"/></g></g>
    </symbol>

    <symbol id="icon-tech" viewBox="0 0 24 24">
        <g><rect fill="none" height="24" width="24"/></g><g><g><path d="M9,15c-2.67,0-8,1.34-8,4v2h16v-2C17,16.34,11.67,15,9,15z"/><path d="M22.1,6.84c0.01-0.11,0.02-0.22,0.02-0.34c0-0.12-0.01-0.23-0.03-0.34l0.74-0.58c0.07-0.05,0.08-0.15,0.04-0.22l-0.7-1.21 c-0.04-0.08-0.14-0.1-0.21-0.08L21.1,4.42c-0.18-0.14-0.38-0.25-0.59-0.34l-0.13-0.93C20.36,3.06,20.29,3,20.2,3h-1.4 c-0.09,0-0.16,0.06-0.17,0.15L18.5,4.08c-0.21,0.09-0.41,0.21-0.59,0.34l-0.87-0.35c-0.08-0.03-0.17,0-0.21,0.08l-0.7,1.21 c-0.04,0.08-0.03,0.17,0.04,0.22l0.74,0.58c-0.02,0.11-0.03,0.23-0.03,0.34c0,0.11,0.01,0.23,0.03,0.34l-0.74,0.58 c-0.07,0.05-0.08,0.15-0.04,0.22l0.7,1.21c0.04,0.08,0.14,0.1,0.21,0.08l0.87-0.35c0.18,0.14,0.38,0.25,0.59,0.34l0.13,0.93 C18.64,9.94,18.71,10,18.8,10h1.4c0.09,0,0.16-0.06,0.17-0.15l0.13-0.93c0.21-0.09,0.41-0.21,0.59-0.34l0.87,0.35 c0.08,0.03,0.17,0,0.21-0.08l0.7-1.21c0.04-0.08,0.03-0.17-0.04-0.22L22.1,6.84z M19.5,7.75c-0.69,0-1.25-0.56-1.25-1.25 s0.56-1.25,1.25-1.25s1.25,0.56,1.25,1.25S20.19,7.75,19.5,7.75z"/><path d="M19.92,11.68l-0.5-0.87c-0.03-0.06-0.1-0.08-0.15-0.06l-0.62,0.25c-0.13-0.1-0.27-0.18-0.42-0.24l-0.09-0.66 C18.12,10.04,18.06,10,18,10h-1c-0.06,0-0.11,0.04-0.12,0.11l-0.09,0.66c-0.15,0.06-0.29,0.15-0.42,0.24l-0.62-0.25 c-0.06-0.02-0.12,0-0.15,0.06l-0.5,0.87c-0.03,0.06-0.02,0.12,0.03,0.16l0.53,0.41c-0.01,0.08-0.02,0.16-0.02,0.24 c0,0.08,0.01,0.17,0.02,0.24l-0.53,0.41c-0.05,0.04-0.06,0.11-0.03,0.16l0.5,0.87c0.03,0.06,0.1,0.08,0.15,0.06l0.62-0.25 c0.13,0.1,0.27,0.18,0.42,0.24l0.09,0.66C16.89,14.96,16.94,15,17,15h1c0.06,0,0.12-0.04,0.12-0.11l0.09-0.66 c0.15-0.06,0.29-0.15,0.42-0.24l0.62,0.25c0.06,0.02,0.12,0,0.15-0.06l0.5-0.87c0.03-0.06,0.02-0.12-0.03-0.16l-0.52-0.41 c0.01-0.08,0.02-0.16,0.02-0.24c0-0.08-0.01-0.17-0.02-0.24l0.53-0.41C19.93,11.81,19.94,11.74,19.92,11.68z M17.5,13.33 c-0.46,0-0.83-0.38-0.83-0.83c0-0.46,0.38-0.83,0.83-0.83s0.83,0.38,0.83,0.83C18.33,12.96,17.96,13.33,17.5,13.33z"/><path d="M4.74,9h8.53c0.27,0,0.49-0.22,0.49-0.49V8.49c0-0.27-0.22-0.49-0.49-0.49H13c0-1.48-0.81-2.75-2-3.45V5.5 C11,5.78,10.78,6,10.5,6S10,5.78,10,5.5V4.14C9.68,4.06,9.35,4,9,4S8.32,4.06,8,4.14V5.5C8,5.78,7.78,6,7.5,6S7,5.78,7,5.5V4.55 C5.81,5.25,5,6.52,5,8H4.74C4.47,8,4.25,8.22,4.25,8.49v0.03C4.25,8.78,4.47,9,4.74,9z"/><path d="M9,13c1.86,0,3.41-1.28,3.86-3H5.14C5.59,11.72,7.14,13,9,13z"/></g></g>
    </symbol>
</svg>
