<svg xmlns="http://www.w3.org/2000/svg">
    <symbol id="brandIcon" viewBox="0 0 105 19.573">
        <title>j[barron]</title>
        <g><path d="M7.3 5.616H0v2.473h4.037v7.461a1.146 1.146 0 01-1.31 1.273H0v2.752h2.86c3.271 0 4.438-1.1 4.438-4.166zM5.53 3.734c1.31 0 2.133-.693 2.133-1.807S6.84.12 5.53.12 3.4.814 3.4 1.928s.818 1.807 2.129 1.807z" fill="#eee"/><path d="M13.391 0v18.562h6.839v-2.527h-3.453V2.527h3.338V0z" fill="#ffd866"/><path d="M30.27 16.194c2.43 0 3.75-1.591 3.75-4.521V9.96c0-2.93-1.32-4.521-3.75-4.521a2.582 2.582 0 00-2.822 2.041h-.21V1.714h-3.554v14.322h3.53v-1.91h.21a2.547 2.547 0 002.846 2.068zm-1.416-2.687a1.605 1.605 0 01-1.7-1.816V9.838a1.605 1.605 0 011.7-1.816 1.605 1.605 0 011.7 1.816v1.853a1.605 1.605 0 01-1.705 1.816zM39.095 16.195a3.261 3.261 0 002.9-1.451h.287v1.292h3.195V8.997c0-2.331-1.607-3.623-4.525-3.623-2.784 0-4.63 1.254-4.821 3.276h3.279a1.411 1.411 0 011.425-.842c.8 0 1.31.421 1.31 1.086v.777l-2.181.159c-2.774.206-4.218 1.31-4.218 3.211a3.086 3.086 0 003.349 3.154zm1.225-2.444c-.775 0-1.272-.374-1.272-.964 0-.646.517-1.011 1.559-1.1l1.54-.122v.477a1.655 1.655 0 01-1.827 1.709zM52.916 8.294V5.617H47.54v2.245h2.124v5.925h-1.933v2.247h8.085v-2.247H52.88v-2.35c0-2 1.1-2.836 3.74-2.836a5.286 5.286 0 011.788.309V5.54a4.637 4.637 0 00-1.5-.206c-1.97 0-2.9.805-3.425 2.958zM65.026 8.294V5.617H59.65v2.245h2.124v5.925h-1.932v2.247h8.083v-2.247h-2.937v-2.35c0-2 1.1-2.836 3.74-2.836a5.289 5.289 0 011.789.309V5.54a4.638 4.638 0 00-1.5-.206c-1.97 0-2.9.805-3.424 2.958zM77.136 16.279c3.157 0 5.127-1.779 5.127-4.634v-1.633c0-2.855-1.97-4.634-5.127-4.634s-5.127 1.774-5.127 4.634v1.638c0 2.85 1.97 4.629 5.127 4.629zm0-8.406c1.119 0 1.818.861 1.818 2.219v1.47c0 1.357-.7 2.219-1.818 2.219s-1.817-.861-1.817-2.219v-1.47c0-1.358.698-2.219 1.817-2.219zM84.195 16.035h3.377v-5.953c0-1.245.65-2 1.712-2 1.1 0 1.626.637 1.626 1.966v5.991h3.386v-6.73c0-2.565-1.244-3.932-3.558-3.932a3.089 3.089 0 00-3.07 1.938h-.182V5.612h-3.291z" fill="#eee"/><path d="M98.276 0v2.527h3.338v13.508h-3.453v2.527H105V0z" fill="#ffd866"/></g>
    </symbol>

    <symbol id="icon-twitter" viewBox="0 0 32 32">
        <path d="M32 7.075c-1.175 0.525-2.444 0.875-3.769 1.031 1.356-0.813 2.394-2.1 2.887-3.631-1.269 0.75-2.675 1.3-4.169 1.594-1.2-1.275-2.906-2.069-4.794-2.069-3.625 0-6.563 2.938-6.563 6.563 0 0.512 0.056 1.012 0.169 1.494-5.456-0.275-10.294-2.888-13.531-6.862-0.563 0.969-0.887 2.1-0.887 3.3 0 2.275 1.156 4.287 2.919 5.463-1.075-0.031-2.087-0.331-2.975-0.819 0 0.025 0 0.056 0 0.081 0 3.181 2.263 5.838 5.269 6.437-0.55 0.15-1.131 0.231-1.731 0.231-0.425 0-0.831-0.044-1.237-0.119 0.838 2.606 3.263 4.506 6.131 4.563-2.25 1.762-5.075 2.813-8.156 2.813-0.531 0-1.050-0.031-1.569-0.094 2.913 1.869 6.362 2.95 10.069 2.95 12.075 0 18.681-10.006 18.681-18.681 0-0.287-0.006-0.569-0.019-0.85 1.281-0.919 2.394-2.075 3.275-3.394z"></path>
    </symbol>

    <symbol id="icon-github" viewBox="0 0 32 32">
        <path d="M16 0.395c-8.836 0-16 7.163-16 16 0 7.069 4.585 13.067 10.942 15.182 0.8 0.148 1.094-0.347 1.094-0.77 0-0.381-0.015-1.642-0.022-2.979-4.452 0.968-5.391-1.888-5.391-1.888-0.728-1.849-1.776-2.341-1.776-2.341-1.452-0.993 0.11-0.973 0.11-0.973 1.606 0.113 2.452 1.649 2.452 1.649 1.427 2.446 3.743 1.739 4.656 1.33 0.143-1.034 0.558-1.74 1.016-2.14-3.554-0.404-7.29-1.777-7.29-7.907 0-1.747 0.625-3.174 1.649-4.295-0.166-0.403-0.714-2.030 0.155-4.234 0 0 1.344-0.43 4.401 1.64 1.276-0.355 2.645-0.532 4.005-0.539 1.359 0.006 2.729 0.184 4.008 0.539 3.054-2.070 4.395-1.64 4.395-1.64 0.871 2.204 0.323 3.831 0.157 4.234 1.026 1.12 1.647 2.548 1.647 4.295 0 6.145-3.743 7.498-7.306 7.895 0.574 0.497 1.085 1.47 1.085 2.963 0 2.141-0.019 3.864-0.019 4.391 0 0.426 0.288 0.925 1.099 0.768 6.354-2.118 10.933-8.113 10.933-15.18 0-8.837-7.164-16-16-16z"></path>
    </symbol>

    <symbol id="icon-linkedin" viewBox="0 0 32 32">
        <path d="M12 12h5.535v2.837h0.079c0.77-1.381 2.655-2.837 5.464-2.837 5.842 0 6.922 3.637 6.922 8.367v9.633h-5.769v-8.54c0-2.037-0.042-4.657-3.001-4.657-3.005 0-3.463 2.218-3.463 4.509v8.688h-5.767v-18z"></path>
        <path d="M2 12h6v18h-6v-18z"></path>
        <path d="M8 7c0 1.657-1.343 3-3 3s-3-1.343-3-3c0-1.657 1.343-3 3-3s3 1.343 3 3z"></path>
    </symbol>

    <symbol id="expand-more" viewBox="0 0 24 24">
        <path d="m16.59 8.59-4.59 4.58-4.59-4.58-1.41 1.41 6 6 6-6z"/><path d="m0 0h24v24h-24z" fill="none"/>
    </symbol>
</svg>
